<?xml version="1.0" standalone="no"?>
<!DOCTYPE svg PUBLIC "-//W3C//DTD SVG 20010904//EN"
 "http://www.w3.org/TR/2001/REC-SVG-20010904/DTD/svg10.dtd">
<svg version="1.0" xmlns="http://www.w3.org/2000/svg"
 width="700.000000pt" height="700.000000pt" viewBox="0 0 700.000000 700.000000"
 preserveAspectRatio="xMidYMid meet">
<metadata>
Created by potrace 1.11, written by Peter Selinger 2001-2013
</metadata>
<g transform="translate(0.000000,700.000000) scale(0.100000,-0.100000)"
fill="#000000" stroke="none">
<path d="M3417 6974 c-2 -2 -198 -16 -227 -16 -8 0 -46 -4 -85 -10 -38 -5 -90
-11 -115 -14 -25 -2 -54 -6 -65 -9 -62 -12 -185 -38 -215 -45 -19 -5 -46 -11
-59 -14 -63 -15 -280 -80 -316 -95 -11 -5 -40 -16 -65 -26 -60 -23 -75 -29
-143 -59 -32 -14 -61 -26 -65 -26 -18 0 -275 -137 -382 -204 -79 -49 -307
-207 -335 -233 -12 -10 -45 -38 -75 -63 -133 -108 -323 -299 -430 -430 -25
-30 -47 -57 -50 -60 -44 -40 -320 -455 -320 -480 0 -5 -5 -10 -12 -10 -6 0 -9
-3 -5 -6 3 -3 -8 -28 -24 -55 -16 -28 -29 -51 -29 -53 0 -2 -22 -50 -49 -107
-27 -57 -63 -142 -81 -189 -17 -47 -35 -92 -39 -100 -4 -8 -15 -42 -25 -75
-11 -33 -23 -69 -27 -80 -5 -11 -11 -31 -14 -45 -2 -14 -12 -50 -21 -80 -21
-75 -44 -176 -50 -225 -3 -22 -8 -47 -11 -55 -9 -22 -10 -28 -17 -99 -4 -36
-9 -67 -10 -70 -6 -9 -16 -133 -21 -233 -2 -48 -5 -91 -7 -95 -8 -16 5 -371
17 -478 12 -96 32 -240 35 -240 1 0 4 -13 6 -30 13 -93 64 -290 112 -435 13
-41 25 -79 27 -85 3 -13 8 -27 73 -185 53 -130 162 -352 199 -408 11 -15 28
-44 38 -65 11 -20 23 -37 27 -37 5 0 8 -5 8 -11 0 -11 124 -196 162 -241 13
-14 32 -38 42 -53 11 -14 28 -36 38 -48 10 -12 35 -42 56 -67 62 -75 318 -330
330 -330 7 0 12 -4 12 -9 0 -10 222 -189 284 -229 22 -15 43 -29 46 -32 9 -11
245 -155 285 -175 22 -11 42 -22 45 -25 6 -6 136 -70 205 -100 142 -63 185
-80 185 -72 0 4 4 1 8 -5 4 -7 17 -14 27 -16 11 -2 27 -7 35 -10 26 -11 234
-79 254 -83 10 -2 56 -13 102 -24 47 -12 96 -23 109 -26 14 -2 37 -7 53 -10
23 -4 63 -11 237 -38 127 -20 496 -27 685 -12 135 10 175 14 175 16 0 3 33 8
87 13 29 3 73 10 98 16 25 6 56 12 70 14 14 2 32 6 40 9 8 3 51 13 95 22 44
10 89 21 100 26 11 4 52 17 90 28 39 11 115 37 170 57 55 20 115 42 133 48 17
6 32 14 32 19 0 4 7 8 16 8 8 0 67 25 130 55 63 30 117 54 120 54 4 0 10 3 13
8 3 4 26 19 51 32 51 27 192 112 200 121 3 3 45 32 95 65 201 134 423 331 611
541 103 115 124 141 118 146 -2 3 -6 14 -9 24 -3 16 -16 49 -60 159 -5 11 -9
23 -10 28 -2 4 -4 9 -5 12 -1 3 -3 8 -5 13 -1 4 -5 16 -10 27 -4 11 -21 54
-37 95 -16 41 -33 84 -37 95 -5 11 -15 36 -21 55 -7 19 -19 49 -25 65 -7 17
-43 109 -79 205 -75 194 -93 241 -111 285 -7 17 -34 86 -60 155 -26 69 -53
139 -61 157 -8 17 -14 38 -14 47 0 9 -4 16 -9 16 -5 0 -11 10 -14 23 -3 12
-15 47 -27 77 -11 30 -23 62 -25 70 -3 13 -91 238 -115 295 -4 11 -14 36 -20
55 -7 19 -18 49 -25 65 -7 17 -20 50 -30 75 -10 25 -23 59 -30 75 -7 17 -55
143 -108 280 -52 138 -98 259 -102 270 -5 11 -7 23 -7 28 1 4 -2 7 -6 7 -4 0
-17 29 -27 65 -11 36 -23 65 -27 65 -5 0 -8 6 -8 14 0 12 -39 117 -72 196 -6
14 -14 34 -18 45 -62 164 -88 225 -97 226 -5 1 -86 2 -182 3 l-174 1 -63 -132
c-35 -73 -64 -138 -64 -143 0 -6 -5 -10 -12 -10 -6 0 -9 -3 -6 -6 4 -3 -7 -32
-23 -64 -16 -32 -29 -64 -29 -69 0 -6 -4 -11 -10 -11 -5 0 -10 -6 -10 -13 0
-8 -14 -42 -31 -78 -29 -60 -55 -115 -108 -231 -11 -26 -55 -117 -96 -203 -41
-86 -75 -163 -75 -171 0 -8 -4 -14 -10 -14 -5 0 -10 -4 -10 -10 0 -5 -23 -58
-51 -117 -28 -59 -64 -137 -81 -173 -16 -36 -45 -96 -63 -135 -18 -38 -47 -99
-63 -135 -132 -286 -180 -375 -256 -475 -49 -65 -196 -207 -266 -257 -70 -50
-225 -138 -251 -143 -9 -2 -25 -8 -35 -13 -11 -6 -46 -18 -79 -27 -33 -9 -71
-21 -85 -25 -14 -5 -50 -12 -80 -16 -30 -3 -59 -9 -65 -12 -5 -4 -280 -7 -610
-8 -619 0 -637 1 -714 40 -45 24 -106 89 -133 143 l-23 48 0 1352 0 1352 30
56 c37 71 100 128 172 155 54 20 74 21 592 21 295 -1 547 -3 561 -6 14 -3 39
-8 55 -11 156 -27 300 -87 438 -181 83 -56 199 -165 252 -238 17 -22 33 -42
36 -45 8 -7 71 -118 91 -160 32 -69 60 -146 74 -205 4 -16 9 -37 11 -45 2 -8
6 -35 9 -60 3 -25 9 -66 13 -91 4 -26 7 -72 6 -103 -1 -46 -7 -63 -32 -94 -71
-89 -177 -95 -257 -16 -32 32 -41 66 -57 209 -6 61 -16 114 -20 119 -5 6 -9
19 -9 29 0 26 -72 178 -107 224 -45 60 -66 84 -97 112 -16 14 -36 33 -45 42
-78 79 -270 165 -381 172 -22 1 -40 5 -40 8 0 3 -216 5 -480 5 l-480 0 0
-1249 0 -1248 558 4 c535 4 606 7 662 27 14 6 34 11 45 13 11 2 31 9 45 15 14
6 46 19 72 29 27 10 48 21 48 26 0 4 6 7 13 7 19 0 143 89 197 141 49 47 128
140 147 173 28 50 170 342 236 486 14 30 45 98 70 150 102 218 131 278 157
335 15 33 53 113 84 178 31 65 56 120 56 122 0 3 29 64 64 137 35 73 78 165
96 203 18 39 47 102 65 140 18 39 49 104 68 145 19 41 49 106 67 144 39 85 86
136 159 178 l56 32 281 0 281 1 55 -28 c53 -27 128 -95 128 -116 0 -5 4 -11 8
-13 5 -1 21 -34 35 -73 14 -38 32 -83 38 -100 7 -16 13 -32 14 -35 1 -3 5 -14
9 -25 50 -131 71 -185 82 -210 30 -73 94 -244 94 -254 0 -6 5 -11 10 -11 6 0
10 -8 10 -18 0 -10 18 -62 40 -116 22 -54 40 -104 40 -112 0 -8 4 -14 10 -14
5 0 9 -3 8 -7 -2 -9 9 -50 23 -78 25 -55 189 -488 189 -501 0 -8 3 -14 8 -14
7 0 28 -53 39 -100 3 -14 10 -27 14 -30 5 -3 10 -15 12 -25 2 -11 10 -33 17
-50 35 -82 40 -94 40 -104 0 -6 4 -19 10 -29 5 -9 28 -66 50 -127 46 -121 52
-136 70 -180 7 -16 43 -111 81 -210 38 -99 73 -189 78 -200 5 -11 26 -65 47
-120 20 -55 42 -113 49 -130 7 -16 18 -46 25 -65 7 -19 18 -48 25 -65 13 -33
43 -108 55 -140 4 -11 13 -33 19 -49 l12 -30 52 90 c147 251 268 537 347 817
12 43 23 86 25 95 2 9 8 37 14 62 7 25 14 56 16 70 3 14 7 34 10 46 3 12 7 39
10 60 4 21 8 46 10 54 2 8 7 38 10 66 3 28 8 61 10 75 19 97 26 490 11 679
-10 132 -14 175 -16 175 -3 0 -9 37 -14 85 -12 106 -102 482 -135 561 -5 13
-24 65 -42 114 -17 50 -41 110 -52 135 -56 128 -72 162 -112 240 -60 119 -62
123 -138 245 -81 131 -200 300 -260 369 -11 11 -35 41 -55 66 -38 46 -323 333
-358 360 -26 20 -128 103 -134 110 -8 8 -110 83 -165 120 -27 19 -52 36 -55
40 -3 3 -22 14 -42 25 -21 11 -38 23 -38 27 0 5 -5 8 -10 8 -6 0 -45 22 -88
48 -168 106 -496 250 -732 322 -114 34 -129 39 -157 45 -123 29 -194 44 -223
46 -19 2 -37 7 -40 10 -3 4 -39 10 -80 14 -41 4 -77 8 -80 10 -21 12 -513 39
-523 29z"/>
</g>
</svg>
